HIERARCHY
ROOT Hips
{
	OFFSET 0.00000 0.00000 0.00000
	CHANNELS 6 Xposition Yposition Zposition Zrotation Yrotation Xrotation 
	JOINT LHipJoint
	{
		OFFSET 0 0 0
		CHANNELS 3 Zrotation Yrotation Xrotation
		JOINT LeftUpLeg
		{
			OFFSET 1.55766 -1.60504 1.11378
			CHANNELS 3 Zrotation Yrotation Xrotation
			JOINT LeftLeg
			{
				OFFSET 2.29047 -6.29302 0.00000
				CHANNELS 3 Zrotation Yrotation Xrotation
				JOINT LeftFoot
				{
					OFFSET 2.52265 -6.93093 0.00000
					CHANNELS 3 Zrotation Yrotation Xrotation
					JOINT LeftToeBase
					{
						OFFSET 0.17633 -0.48446 2.02656
						CHANNELS 3 Zrotation Yrotation Xrotation
						End Site
						{
							OFFSET 0.00000 -0.00000 1.04989
						}
					}
				}
			}
		}
	}
	JOINT RHipJoint
	{
		OFFSET 0 0 0
		CHANNELS 3 Zrotation Yrotation Xrotation
		JOINT RightUpLeg
		{
			OFFSET -1.48599 -1.60504 1.11378
			CHANNELS 3 Zrotation Yrotation Xrotation
			JOINT RightLeg
			{
				OFFSET -2.27280 -6.24448 0.00000
				CHANNELS 3 Zrotation Yrotation Xrotation
				JOINT RightFoot
				{
					OFFSET -2.50834 -6.89161 0.00000
					CHANNELS 3 Zrotation Yrotation Xrotation
					JOINT RightToeBase
					{
						OFFSET -0.26967 -0.74090 2.08741
						CHANNELS 3 Zrotation Yrotation Xrotation
						End Site
						{
							OFFSET -0.00000 -0.00000 1.10614
						}
					}
				}
			}
		}
	}
	JOINT LowerBack
	{
		OFFSET 0 0 0
		CHANNELS 3 Zrotation Yrotation Xrotation
		JOINT Spine
		{
			OFFSET 0.06481 2.02437 -0.08472
			CHANNELS 3 Zrotation Yrotation Xrotation
			JOINT Spine1
			{
				OFFSET 0.00015 1.96711 0.18069
				CHANNELS 3 Zrotation Yrotation Xrotation
				JOINT Neck
				{
					OFFSET 0 0 0
					CHANNELS 3 Zrotation Yrotation Xrotation
					JOINT Neck1
					{
						OFFSET -0.29961 1.68293 -0.13041
						CHANNELS 3 Zrotation Yrotation Xrotation
						JOINT Head
						{
							OFFSET 0.59697 1.61501 -0.14669
							CHANNELS 3 Zrotation Yrotation Xrotation
							End Site
							{
								OFFSET 0.22973 1.74906 -0.10148
							}
						}
					}
				}
				JOINT LeftShoulder
				{
					OFFSET 0 0 0
					CHANNELS 3 Zrotation Yrotation Xrotation
					JOINT LeftArm
					{
						OFFSET 3.37968 1.02893 0.31147
						CHANNELS 3 Zrotation Yrotation Xrotation
						JOINT LeftForeArm
						{
							OFFSET 5.19807 -0.00000 -0.00000
							CHANNELS 3 Zrotation Yrotation Xrotation
							JOINT LeftHand
							{
								OFFSET 3.09370 -0.00000 -0.00000
								CHANNELS 3 Zrotation Yrotation Xrotation
								JOINT LeftFingerBase
								{
									OFFSET 0 0 0
									CHANNELS 3 Zrotation Yrotation Xrotation
									JOINT LeftHandIndex1
									{
										OFFSET 0.67263 -0.00000 -0.00000
										CHANNELS 3 Zrotation Yrotation Xrotation
										End Site
										{
											OFFSET 0.54229 -0.00000 -0.00000
										}
									}
								}
								JOINT LThumb
								{
									OFFSET 0 0 0
									CHANNELS 3 Zrotation Yrotation Xrotation
									End Site
									{
										OFFSET 0.55057 -0.00000 0.55057
									}
								}
							}
						}
					}
				}
				JOINT RightShoulder
				{
					OFFSET 0 0 0
					CHANNELS 3 Zrotation Yrotation Xrotation
					JOINT RightArm
					{
						OFFSET -3.38254 0.96355 -0.16120
						CHANNELS 3 Zrotation Yrotation Xrotation
						JOINT RightForeArm
						{
							OFFSET -5.45222 -0.00000 -0.00000
							CHANNELS 3 Zrotation Yrotation Xrotation
							JOINT RightHand
							{
								OFFSET -3.01284 -0.00000 -0.00000
								CHANNELS 3 Zrotation Yrotation Xrotation
								JOINT RightFingerBase
								{
									OFFSET 0 0 0
									CHANNELS 3 Zrotation Yrotation Xrotation
									JOINT RightHandIndex1
									{
										OFFSET -0.62230 -0.00000 -0.00000
										CHANNELS 3 Zrotation Yrotation Xrotation
										End Site
										{
											OFFSET -0.50171 -0.00000 -0.00000
										}
									}
								}
								JOINT RThumb
								{
									OFFSET 0 0 0
									CHANNELS 3 Zrotation Yrotation Xrotation
									End Site
									{
										OFFSET -0.50937 -0.00000 0.50937
									}
								}
							}
						}
					}
				}
			}
		}
	}
}
MOTION
Frames: 11
Frame Time: .0083333
-3.9767 16.2357 21.5197 0 0 0 0 0 0 -21 0 0 0 0 0 0 0 0 0 0 0 0 0 0 21 0 0 0 0 0 0 0 0 0 0 0 0 0 0 0 0 0 0 0 0 0 0 -16 0 0 21 0 0 11 0 0 0 -8 0 0 0 0 0 0 0 0 0 0 0 0 0 0 0 0 0 0 0 0 8 0 0 0 0 0 0 0 0 0 0 0 0 0 0 0 0 0
-3.9767 16.2357 21.5197 -4.1176 5.2637 11.4050 0.0000 0.0000 0.0000 -15.2584 0.1048 -24.9460 2.4301 9.7097 28.0416 0.6670 -3.6434 -14.6226 1.1409 -6.7829 -19.0738 0.0000 0.0000 0.0000 23.1064 -0.4001 -22.1879 -1.8472 -8.5403 24.3677 0.9406 24.4010 -9.9791 -0.2462 3.1931 -8.8169 3.5959 0.2224 -13.2250 0.2574 -0.1007 -6.9367 -1.7699 -0.1296 0.1158 -25.4917 -19.2996 41.6855 46.8881 -32.5070 -20.3158 22.8340 -21.6430 1.5338 -0.0000 0.0000 0.0000 -81.1670 -0.4913 19.1403 20.2382 -30.9283 -5.6533 -0.0000 0.0000 -37.1171 13.5042 -4.7610 -1.1419 -7.1250 0.0000 -0.0000 -9.8465 25.0773 4.8128 -0.0000 0.0000 0.0000 86.0917 11.3054 11.7787 -13.8978 22.5884 -2.7887 0.0000 0.0000 15.8618 -8.0274 -9.9494 1.3958 7.1250 -0.0000 -0.0000 16.4472 -39.4907 2.3059
-3.9793 16.2372 21.5127 -4.1377 5.0503 11.4700 0.0000 0.0000 0.0000 -15.2496 0.1444 -25.0395 2.4333 9.7156 28.0606 0.6671 -3.5014 -14.6382 1.1410 -6.7832 -19.0747 0.0000 0.0000 0.0000 23.1102 -0.2515 -22.2588 -1.8444 -8.5342 24.3487 0.9636 24.4911 -9.8756 -0.2436 3.1759 -8.7689 3.6011 0.3356 -13.0988 0.2024 0.0539 -6.9388 -1.8099 -0.0546 0.0548 -25.0864 -19.5247 41.5269 47.2915 -32.3805 -20.7151 22.2483 -21.6438 1.5036 0.0000 0.0000 0.0000 -81.0153 -0.6037 19.5430 20.1787 -30.8571 -5.6227 -0.0000 0.0000 -37.5401 13.5905 -5.0519 -1.2195 -7.1250 0.0000 -0.0000 -9.7630 24.7809 4.8391 0.0000 0.0000 0.0000 86.0635 11.3521 11.9960 -13.8329 22.4954 -2.7639 0.0000 0.0000 15.2542 -8.3504 -9.3935 1.3724 7.1250 -0.0000 -0.0000 16.0363 -38.9777 2.4537
-3.9803 16.2376 21.5066 -4.1602 5.0942 11.4821 0.0000 0.0000 0.0000 -15.2144 0.1006 -25.0812 2.4364 9.7214 28.0791 0.6643 -3.5025 -14.6060 1.1355 -6.7675 -19.0283 0.0000 0.0000 0.0000 23.1348 -0.2068 -22.2698 -1.8429 -8.5308 24.3383 0.9490 24.3968 -9.8987 -0.2449 3.1848 -8.7937 3.6270 0.3215 -13.0644 0.1958 0.0336 -6.9243 -1.8339 -0.0654 0.0502 -25.2971 -19.4445 41.4825 46.9648 -32.5458 -20.3775 22.7814 -21.6665 1.5403 0.0000 -0.0000 0.0000 -80.8754 -0.7213 19.9011 20.1246 -30.7921 -5.5950 -0.0000 0.0000 -38.1555 13.8719 -5.0111 -1.2357 -7.1250 0.0000 -0.0000 -9.5567 24.8164 4.7260 0.0000 -0.0000 0.0000 85.9591 11.3570 12.9140 -13.8789 22.5614 -2.7815 0.0000 0.0000 14.0538 -8.7352 -9.8317 1.5029 7.1250 -0.0000 -0.0000 15.8215 -39.4329 2.2360
-3.9809 16.2369 21.5045 -4.1732 5.1620 11.4416 0.0000 0.0000 0.0000 -15.1895 0.0861 -25.0634 2.4400 9.7281 28.1006 0.6651 -3.5611 -14.6095 1.1290 -6.7487 -18.9729 0.0000 0.0000 0.0000 23.1647 -0.2892 -22.2515 -1.8410 -8.5268 24.3260 0.9542 24.4137 -9.8710 -0.2424 3.1684 -8.7479 3.6291 0.2680 -13.0426 0.2096 -0.0376 -6.8759 -1.8299 -0.0997 0.0854 -25.2861 -19.4173 41.4316 47.0130 -32.4884 -20.4140 22.8283 -21.6440 1.5260 0.0000 -0.0000 0.0000 -80.7563 -0.6460 20.2958 20.2618 -30.9565 -5.6654 -0.0000 0.0000 -39.0056 14.3064 -4.9238 -1.2539 -7.1250 0.0000 -0.0000 -9.2391 24.8960 4.5476 0.0000 -0.0000 0.0000 85.7443 11.4191 14.3336 -13.9100 22.6059 -2.7934 0.0000 0.0000 12.8152 -8.9700 -10.9205 1.7129 7.1250 -0.0000 -0.0000 15.9013 -40.5098 1.8128
-3.9816 16.2367 21.5004 -4.1978 5.1761 11.4340 0.0000 0.0000 0.0000 -15.1564 0.0689 -25.0805 2.4432 9.7339 28.1193 0.6647 -3.5637 -14.6045 1.1252 -6.7377 -18.9405 0.0000 0.0000 0.0000 23.1958 -0.2994 -22.2602 -1.8396 -8.5237 24.3163 0.9572 24.4155 -9.8463 -0.2411 3.1598 -8.7241 3.6469 0.2479 -13.0050 0.2138 -0.0654 -6.8466 -1.8391 -0.1135 0.0943 -25.2607 -19.4152 41.3713 47.0607 -32.4567 -20.4460 22.8560 -21.6335 1.5215 0.0000 0.0000 0.0000 -80.6046 -0.6485 20.7465 20.3110 -31.0152 -5.6907 -0.0000 0.0000 -39.7881 14.6951 -4.9004 -1.2834 -7.1250 0.0000 -0.0000 -8.9512 24.9115 4.3992 0.0000 0.0000 0.0000 85.5479 11.4831 15.5250 -13.8946 22.5838 -2.7875 0.0000 0.0000 11.8560 -9.2435 -11.5523 1.8667 7.1250 -0.0000 -0.0000 15.8359 -41.1477 1.5483
-3.9819 16.2366 21.4966 -4.2123 5.2002 11.4201 0.0000 0.0000 0.0000 -15.1354 0.0472 -25.0882 2.4468 9.7406 28.1406 0.6647 -3.5720 -14.6039 1.1211 -6.7260 -18.9060 0.0000 0.0000 0.0000 23.2161 -0.3341 -22.2688 -1.8385 -8.5213 24.3091 0.9617 24.4303 -9.8222 -0.2395 3.1492 -8.6944 3.6558 0.2139 -12.9750 0.2234 -0.1111 -6.8134 -1.8399 -0.1358 0.1105 -25.2572 -19.3951 41.3162 47.1075 -32.4161 -20.4717 22.8922 -21.6183 1.5190 0.0000 0.0000 0.0000 -80.4351 -0.6191 21.2628 20.3842 -31.1025 -5.7285 -0.0000 0.0000 -40.6286 15.1447 -4.8386 -1.3078 -7.1250 0.0000 -0.0000 -8.6198 24.9647 4.2219 0.0000 0.0000 0.0000 85.3039 11.5714 16.8573 -13.8482 22.5173 -2.7697 0.0000 0.0000 11.0452 -9.4693 -12.2228 2.0224 7.1250 -0.0000 -0.0000 15.8253 -41.8203 1.2768
-3.9821 16.2364 21.4923 -4.2233 5.2150 11.4057 0.0000 0.0000 0.0000 -15.1193 0.0251 -25.0937 2.4499 9.7463 28.1589 0.6646 -3.5698 -14.6026 1.1182 -6.7174 -18.8809 0.0000 0.0000 0.0000 23.2307 -0.3615 -22.2781 -1.8378 -8.5197 24.3041 0.9669 24.4469 -9.7949 -0.2380 3.1395 -8.6674 3.6566 0.1760 -12.9390 0.2375 -0.1608 -6.7792 -1.8319 -0.1599 0.1244 -25.2631 -19.3715 41.2535 47.1467 -32.3772 -20.4876 22.9219 -21.6014 1.5209 -0.0000 -0.0000 0.0000 -80.2412 -0.5581 21.8591 20.4821 -31.2189 -5.7792 -0.0000 0.0000 -41.4896 15.6324 -4.7491 -1.3271 -7.1250 0.0000 -0.0000 -8.2608 25.0455 4.0268 -0.0000 -0.0000 0.0000 85.0232 11.6869 18.2575 -13.7722 22.4081 -2.7407 0.0000 0.0000 10.4438 -9.6018 -12.8557 2.1556 7.1250 -0.0000 -0.0000 15.8896 -42.4482 1.0288
-3.9825 16.2362 21.4873 -4.2274 5.2237 11.3926 0.0000 0.0000 0.0000 -15.1107 -0.0023 -25.0998 2.4528 9.7517 28.1762 0.6641 -3.5562 -14.5990 1.1163 -6.7119 -18.8646 0.0000 0.0000 0.0000 23.2350 -0.3723 -22.2891 -1.8379 -8.5199 24.3047 0.9700 24.4516 -9.7724 -0.2369 3.1326 -8.6482 3.6470 0.1344 -12.8926 0.2544 -0.2139 -6.7462 -1.8155 -0.1855 0.1314 -25.2809 -19.3432 41.1876 47.1836 -32.3400 -20.4975 22.9498 -21.5842 1.5275 -0.0000 -0.0000 0.0000 -80.0211 -0.4799 22.5245 20.5902 -31.3468 -5.8353 -0.0000 0.0000 -42.3382 16.1259 -4.6303 -1.3370 -7.1250 0.0000 -0.0000 -7.8981 25.1564 3.8261 -0.0000 -0.0000 0.0000 84.7129 11.8255 19.6786 -13.6704 22.2616 -2.7020 0.0000 0.0000 10.0477 -9.6142 -13.3773 2.2443 7.1250 -0.0000 -0.0000 16.0310 -42.9561 0.8316
-3.9834 16.2361 21.4808 -4.2364 5.2319 11.3779 0.0000 0.0000 0.0000 -15.0931 -0.0383 -25.1110 2.4564 9.7581 28.1969 0.6631 -3.5304 -14.5895 1.1166 -6.7129 -18.8675 0.0000 0.0000 0.0000 23.2435 -0.3528 -22.2966 -1.8387 -8.5216 24.3100 0.9686 24.4268 -9.7564 -0.2368 3.1319 -8.6462 3.6328 0.0885 -12.8264 0.2780 -0.2715 -6.7150 -1.7900 -0.2134 0.1257 -25.3055 -19.3135 41.1176 47.2153 -32.3047 -20.5046 22.9732 -21.5662 1.5362 -0.0000 0.0000 0.0000 -79.7777 -0.3824 23.2357 20.7168 -31.4963 -5.9013 -0.0000 0.0000 -43.1622 16.5923 -4.4714 -1.3307 -7.1250 0.0000 -0.0000 -7.5566 25.3098 3.6307 -0.0000 0.0000 0.0000 84.3882 11.9834 21.0551 -13.5577 22.0988 -2.6594 0.0000 0.0000 9.8203 -9.4810 -13.7562 2.2741 7.1250 -0.0000 -0.0000 16.2612 -43.3096 0.6981
-3.9850 16.2357 21.4728 -4.2525 5.2367 11.3629 0.0000 0.0000 0.0000 -15.0634 -0.0786 -25.1312 2.4605 9.7658 28.2216 0.6614 -3.4971 -14.5741 1.1171 -6.7143 -18.8718 0.0000 0.0000 0.0000 23.2577 -0.2876 -22.2965 -1.8403 -8.5251 24.3208 0.9601 24.3583 -9.7544 -0.2383 3.1419 -8.6740 3.6162 0.0407 -12.7401 0.3080 -0.3304 -6.6849 -1.7565 -0.2420 0.1081 -25.3317 -19.2874 41.0377 47.2430 -32.2727 -20.5135 22.9899 -21.5482 1.5463 0.0000 -0.0000 0.0000 -79.5147 -0.2826 23.9593 20.8513 -31.6544 -5.9717 -0.0000 0.0000 -43.9659 16.9888 -4.2789 -1.3058 -7.1250 0.0000 -0.0000 -7.2682 25.5003 3.4574 0.0000 -0.0000 0.0000 84.0612 12.1557 22.3564 -13.4462 21.9375 -2.6176 0.0000 0.0000 9.6745 -9.2288 -13.9604 2.2448 7.1250 -0.0000 -0.0000 16.5449 -43.4806 0.6390
